# xmcd CD database file
#
# Track frame offsets:
#	150
#	9570
#	45960
#	72977
#	102452
#	141520
#	165210
#	191987
#	209757
#	216972
#	237082
#
# Disc length: 3469 seconds
#
# Revision: 0
# Processed by: cddbd v1.5.2PL0 Copyright (c) Steve Scherf et al.
# Submitted via: CDex 1.51
#
DISCID=a20d8b0b
DTITLE=Dave Douglas - Strange Liberation
DYEAR=2003
DGENRE=Jazz
TTITLE0=A Single Sky
TTITLE1=Strange Liberation
TTITLE2=Skeeter-ism
TTITLE3=Just Say This
TTITLE4=Seventeen
TTITLE5=Mountains From the Train
TTITLE6=Rock of Billy
TTITLE7=The Frisell Dream
TTITLE8=Passing Through
TTITLE9=The Jones
TTITLE10=Catalyst
EXTD=YEAR: 2003
EXTT0=
EXTT1=
EXTT2=
EXTT3=
EXTT4=
EXTT5=
EXTT6=
EXTT7=
EXTT8=
EXTT9=
EXTT10=
PLAYORDER=
